<svg xmlns="http://www.w3.org/2000/svg" xmlns:xlink="http://www.w3.org/1999/xlink" width="500" zoomAndPan="magnify" viewBox="0 0 375 374.999991" height="500" preserveAspectRatio="xMidYMid meet" version="1.0"><defs><clipPath id="f3624feb1f"><path d="M 175 96.242188 L 200 96.242188 L 200 120 L 175 120 Z M 175 96.242188 " clip-rule="nonzero"/></clipPath><clipPath id="38318eaaae"><path d="M 175 205 L 200 205 L 200 228.242188 L 175 228.242188 Z M 175 205 " clip-rule="nonzero"/></clipPath><clipPath id="6d17ca5a46"><path d="M 230 150 L 253.382812 150 L 253.382812 174 L 230 174 Z M 230 150 " clip-rule="nonzero"/></clipPath><clipPath id="5b4539d7d6"><path d="M 121.382812 150 L 145 150 L 145 174 L 121.382812 174 Z M 121.382812 150 " clip-rule="nonzero"/></clipPath></defs><rect x="-37.5" width="450" fill="#ffffff" y="-37.499999" height="449.999989" fill-opacity="1"/><rect x="-37.5" width="450" fill="#ffffff" y="-37.499999" height="449.999989" fill-opacity="1"/><g clip-path="url(#f3624feb1f)"><path fill="#13c2c2" d="M 199.132812 107.878906 C 199.132812 114.3125 193.929688 119.515625 187.496094 119.515625 C 181.0625 119.515625 175.859375 114.3125 175.859375 107.878906 C 175.859375 101.445312 181.0625 96.242188 187.496094 96.242188 C 193.929688 96.242188 199.132812 101.445312 199.132812 107.878906 Z M 199.132812 107.878906 " fill-opacity="1" fill-rule="nonzero"/></g><g clip-path="url(#38318eaaae)"><path fill="#13c2c2" d="M 199.132812 216.832031 C 199.132812 223.265625 193.929688 228.464844 187.496094 228.464844 C 181.0625 228.464844 175.859375 223.265625 175.859375 216.832031 C 175.859375 210.394531 181.0625 205.195312 187.496094 205.195312 C 193.929688 205.195312 199.132812 210.394531 199.132812 216.832031 Z M 199.132812 216.832031 " fill-opacity="1" fill-rule="nonzero"/></g><g clip-path="url(#6d17ca5a46)"><path fill="#13c2c2" d="M 241.972656 173.992188 C 235.535156 173.992188 230.335938 168.789062 230.335938 162.355469 C 230.335938 155.921875 235.535156 150.71875 241.972656 150.71875 C 248.40625 150.71875 253.605469 155.921875 253.605469 162.355469 C 253.605469 168.789062 248.40625 173.992188 241.972656 173.992188 Z M 241.972656 173.992188 " fill-opacity="1" fill-rule="nonzero"/></g><g clip-path="url(#5b4539d7d6)"><path fill="#13c2c2" d="M 133.019531 173.992188 C 126.585938 173.992188 121.382812 168.789062 121.382812 162.355469 C 121.382812 155.921875 126.585938 150.71875 133.019531 150.71875 C 139.453125 150.71875 144.65625 155.921875 144.65625 162.355469 C 144.65625 168.789062 139.453125 173.992188 133.019531 173.992188 Z M 133.019531 173.992188 " fill-opacity="1" fill-rule="nonzero"/></g><path fill="#13c2c2" d="M 151.003906 153.453125 L 153.03125 155.480469 C 155.234375 157.683594 158.847656 157.683594 161.050781 155.480469 C 163.253906 153.277344 163.253906 149.660156 161.050781 147.457031 L 159.023438 145.429688 C 155.851562 142.257812 155.851562 137.054688 159.023438 133.882812 C 162.195312 130.710938 167.398438 130.710938 170.570312 133.882812 L 189.257812 152.570312 C 191.460938 154.773438 195.078125 154.773438 197.28125 152.570312 C 199.484375 150.367188 199.484375 146.753906 197.28125 144.550781 L 178.59375 125.863281 C 171.011719 118.28125 158.671875 118.28125 151.003906 125.863281 C 143.421875 133.441406 143.421875 145.78125 151.003906 153.453125 Z M 151.003906 153.453125 " fill-opacity="1" fill-rule="nonzero"/><path fill="#13c2c2" d="M 148.796875 107.351562 C 153.292969 111.847656 153.292969 119.164062 148.796875 123.65625 C 144.304688 128.152344 136.988281 128.152344 132.492188 123.65625 C 127.996094 119.164062 127.996094 111.847656 132.492188 107.351562 C 136.988281 102.855469 144.304688 102.855469 148.796875 107.351562 Z M 148.796875 107.351562 " fill-opacity="1" fill-rule="nonzero"/><path fill="#13c2c2" d="M 178.59375 198.847656 L 180.621094 196.820312 C 182.824219 194.617188 182.824219 191.003906 180.621094 188.800781 C 178.417969 186.597656 174.800781 186.597656 172.597656 188.800781 L 170.570312 190.828125 C 167.398438 194 162.195312 194 159.023438 190.828125 C 155.851562 187.652344 155.851562 182.453125 159.023438 179.28125 L 177.710938 160.59375 C 179.914062 158.386719 179.914062 154.773438 177.710938 152.570312 C 175.507812 150.367188 171.894531 150.367188 169.691406 152.570312 L 151.003906 171.257812 C 143.421875 178.839844 143.421875 191.179688 151.003906 198.847656 C 158.582031 206.429688 170.921875 206.429688 178.59375 198.847656 Z M 178.59375 198.847656 " fill-opacity="1" fill-rule="nonzero"/><path fill="#13c2c2" d="M 132.492188 201.050781 C 136.988281 196.554688 144.304688 196.554688 148.796875 201.050781 C 153.292969 205.546875 153.292969 212.863281 148.796875 217.359375 C 144.304688 221.855469 136.988281 221.855469 132.492188 217.359375 C 127.996094 212.863281 127.996094 205.546875 132.492188 201.050781 Z M 132.492188 201.050781 " fill-opacity="1" fill-rule="nonzero"/><path fill="#13c2c2" d="M 223.988281 171.257812 L 221.960938 169.230469 C 219.757812 167.027344 216.144531 167.027344 213.941406 169.230469 C 211.738281 171.433594 211.738281 175.046875 213.941406 177.253906 L 215.96875 179.28125 C 219.140625 182.453125 219.140625 187.652344 215.96875 190.828125 C 212.792969 194 207.59375 194 204.421875 190.828125 L 185.734375 172.140625 C 183.527344 169.9375 179.914062 169.9375 177.710938 172.140625 C 175.507812 174.34375 175.507812 177.957031 177.710938 180.160156 L 196.398438 198.847656 C 203.980469 206.429688 216.320312 206.429688 223.988281 198.847656 C 231.570312 191.269531 231.570312 178.925781 223.988281 171.257812 Z M 223.988281 171.257812 " fill-opacity="1" fill-rule="nonzero"/><path fill="#13c2c2" d="M 226.191406 217.359375 C 221.695312 212.863281 221.695312 205.546875 226.191406 201.050781 C 230.6875 196.554688 238.003906 196.554688 242.5 201.050781 C 246.996094 205.546875 246.996094 212.863281 242.5 217.359375 C 238.003906 221.855469 230.6875 221.855469 226.191406 217.359375 Z M 226.191406 217.359375 " fill-opacity="1" fill-rule="nonzero"/><path fill="#13c2c2" d="M 196.398438 125.863281 L 194.371094 127.890625 C 192.167969 130.09375 192.167969 133.707031 194.371094 135.910156 C 196.574219 138.113281 200.1875 138.113281 202.394531 135.910156 L 204.421875 133.882812 C 207.59375 130.710938 212.792969 130.710938 215.96875 133.882812 C 219.140625 137.054688 219.140625 142.257812 215.96875 145.429688 L 197.28125 164.117188 C 195.078125 166.320312 195.078125 169.9375 197.28125 172.140625 C 199.484375 174.34375 203.097656 174.34375 205.300781 172.140625 L 223.988281 153.453125 C 231.570312 145.871094 231.570312 133.53125 223.988281 125.863281 C 216.410156 118.28125 204.066406 118.28125 196.398438 125.863281 Z M 196.398438 125.863281 " fill-opacity="1" fill-rule="nonzero"/><path fill="#13c2c2" d="M 242.5 123.65625 C 238.003906 128.152344 230.6875 128.152344 226.191406 123.65625 C 221.695312 119.164062 221.695312 111.847656 226.191406 107.351562 C 230.6875 102.855469 238.003906 102.855469 242.5 107.351562 C 246.996094 111.847656 246.996094 119.164062 242.5 123.65625 Z M 242.5 123.65625 " fill-opacity="1" fill-rule="nonzero"/></svg>