<svg xmlns="http://www.w3.org/2000/svg" xmlns:xlink="http://www.w3.org/1999/xlink" width="500" zoomAndPan="magnify" viewBox="0 0 375 374.999991" height="500" preserveAspectRatio="xMidYMid meet" version="1.0"><defs><clipPath id="242a8ac178"><path d="M 156 12.570312 L 219 12.570312 L 219 75 L 156 75 Z M 156 12.570312 " clip-rule="nonzero"/></clipPath><clipPath id="3486dc67ec"><path d="M 156 300 L 219 300 L 219 362.070312 L 156 362.070312 Z M 156 300 " clip-rule="nonzero"/></clipPath><clipPath id="e3cc3bc335"><path d="M 300 156 L 362.070312 156 L 362.070312 219 L 300 219 Z M 300 156 " clip-rule="nonzero"/></clipPath><clipPath id="a69dcdb791"><path d="M 12.570312 156 L 75 156 L 75 219 L 12.570312 219 Z M 12.570312 156 " clip-rule="nonzero"/></clipPath></defs><g clip-path="url(#242a8ac178)"><path fill="#13c2c2" d="M 218.28125 43.355469 C 218.28125 60.382812 204.523438 74.144531 187.496094 74.144531 C 170.46875 74.144531 156.710938 60.382812 156.710938 43.355469 C 156.710938 26.332031 170.46875 12.570312 187.496094 12.570312 C 204.523438 12.570312 218.28125 26.332031 218.28125 43.355469 Z M 218.28125 43.355469 " fill-opacity="1" fill-rule="nonzero"/></g><g clip-path="url(#3486dc67ec)"><path fill="#13c2c2" d="M 218.28125 331.636719 C 218.28125 348.660156 204.523438 362.421875 187.496094 362.421875 C 170.46875 362.421875 156.710938 348.660156 156.710938 331.636719 C 156.710938 314.609375 170.46875 300.847656 187.496094 300.847656 C 204.523438 300.847656 218.28125 314.609375 218.28125 331.636719 Z M 218.28125 331.636719 " fill-opacity="1" fill-rule="nonzero"/></g><g clip-path="url(#e3cc3bc335)"><path fill="#13c2c2" d="M 331.636719 218.28125 C 314.609375 218.28125 300.847656 204.523438 300.847656 187.496094 C 300.847656 170.46875 314.609375 156.710938 331.636719 156.710938 C 348.660156 156.710938 362.421875 170.46875 362.421875 187.496094 C 362.421875 204.523438 348.660156 218.28125 331.636719 218.28125 Z M 331.636719 218.28125 " fill-opacity="1" fill-rule="nonzero"/></g><g clip-path="url(#a69dcdb791)"><path fill="#13c2c2" d="M 43.355469 218.28125 C 26.332031 218.28125 12.570312 204.523438 12.570312 187.496094 C 12.570312 170.46875 26.332031 156.710938 43.355469 156.710938 C 60.382812 156.710938 74.144531 170.46875 74.144531 187.496094 C 74.144531 204.523438 60.382812 218.28125 43.355469 218.28125 Z M 43.355469 218.28125 " fill-opacity="1" fill-rule="nonzero"/></g><path fill="#13c2c2" d="M 90.9375 163.9375 L 96.300781 169.304688 C 102.132812 175.132812 111.695312 175.132812 117.527344 169.304688 C 123.355469 163.472656 123.355469 153.910156 117.527344 148.078125 L 112.160156 142.714844 C 103.765625 134.320312 103.765625 120.558594 112.160156 112.160156 C 120.558594 103.765625 134.320312 103.765625 142.714844 112.160156 L 192.160156 161.605469 C 197.992188 167.4375 207.554688 167.4375 213.386719 161.605469 C 219.214844 155.777344 219.214844 146.214844 213.386719 140.382812 L 163.9375 90.9375 C 143.882812 70.878906 111.226562 70.878906 90.9375 90.9375 C 70.878906 110.996094 70.878906 143.648438 90.9375 163.9375 Z M 90.9375 163.9375 " fill-opacity="1" fill-rule="nonzero"/><path fill="#13c2c2" d="M 85.105469 41.957031 C 97 53.851562 97 73.210938 85.105469 85.105469 C 73.210938 97 53.851562 97 41.957031 85.105469 C 30.0625 73.210938 30.0625 53.851562 41.957031 41.957031 C 53.851562 30.0625 73.210938 30.0625 85.105469 41.957031 Z M 85.105469 41.957031 " fill-opacity="1" fill-rule="nonzero"/><path fill="#13c2c2" d="M 163.9375 284.054688 L 169.304688 278.691406 C 175.132812 272.859375 175.132812 263.296875 169.304688 257.464844 C 163.472656 251.636719 153.910156 251.636719 148.078125 257.464844 L 142.714844 262.832031 C 134.320312 271.226562 120.558594 271.226562 112.160156 262.832031 C 103.765625 254.433594 103.765625 240.671875 112.160156 232.277344 L 161.605469 182.832031 C 167.4375 177 167.4375 167.4375 161.605469 161.605469 C 155.777344 155.777344 146.214844 155.777344 140.382812 161.605469 L 90.9375 211.054688 C 70.878906 231.109375 70.878906 263.765625 90.9375 284.054688 C 110.996094 304.113281 143.648438 304.113281 163.9375 284.054688 Z M 163.9375 284.054688 " fill-opacity="1" fill-rule="nonzero"/><path fill="#13c2c2" d="M 41.957031 289.886719 C 53.851562 277.992188 73.210938 277.992188 85.105469 289.886719 C 97 301.78125 97 321.140625 85.105469 333.035156 C 73.210938 344.929688 53.851562 344.929688 41.957031 333.035156 C 30.0625 321.140625 30.0625 301.78125 41.957031 289.886719 Z M 41.957031 289.886719 " fill-opacity="1" fill-rule="nonzero"/><path fill="#13c2c2" d="M 284.054688 211.054688 L 278.691406 205.6875 C 272.859375 199.859375 263.296875 199.859375 257.464844 205.6875 C 251.636719 211.519531 251.636719 221.082031 257.464844 226.914062 L 262.832031 232.277344 C 271.226562 240.671875 271.226562 254.433594 262.832031 262.832031 C 254.433594 271.226562 240.671875 271.226562 232.277344 262.832031 L 182.832031 213.386719 C 177 207.554688 167.4375 207.554688 161.605469 213.386719 C 155.777344 219.214844 155.777344 228.777344 161.605469 234.609375 L 211.054688 284.054688 C 231.109375 304.113281 263.765625 304.113281 284.054688 284.054688 C 304.113281 263.996094 304.113281 231.34375 284.054688 211.054688 Z M 284.054688 211.054688 " fill-opacity="1" fill-rule="nonzero"/><path fill="#13c2c2" d="M 289.886719 333.035156 C 277.992188 321.140625 277.992188 301.78125 289.886719 289.886719 C 301.78125 277.992188 321.140625 277.992188 333.035156 289.886719 C 344.929688 301.78125 344.929688 321.140625 333.035156 333.035156 C 321.140625 344.929688 301.78125 344.929688 289.886719 333.035156 Z M 289.886719 333.035156 " fill-opacity="1" fill-rule="nonzero"/><path fill="#13c2c2" d="M 211.054688 90.9375 L 205.6875 96.300781 C 199.859375 102.132812 199.859375 111.695312 205.6875 117.527344 C 211.519531 123.355469 221.082031 123.355469 226.914062 117.527344 L 232.277344 112.160156 C 240.671875 103.765625 254.433594 103.765625 262.832031 112.160156 C 271.226562 120.558594 271.226562 134.320312 262.832031 142.714844 L 213.386719 192.160156 C 207.554688 197.992188 207.554688 207.554688 213.386719 213.386719 C 219.214844 219.214844 228.777344 219.214844 234.609375 213.386719 L 284.054688 163.9375 C 304.113281 143.882812 304.113281 111.226562 284.054688 90.9375 C 263.996094 70.878906 231.34375 70.878906 211.054688 90.9375 Z M 211.054688 90.9375 " fill-opacity="1" fill-rule="nonzero"/><path fill="#13c2c2" d="M 333.035156 85.105469 C 321.140625 97 301.78125 97 289.886719 85.105469 C 277.992188 73.210938 277.992188 53.851562 289.886719 41.957031 C 301.78125 30.0625 321.140625 30.0625 333.035156 41.957031 C 344.929688 53.851562 344.929688 73.210938 333.035156 85.105469 Z M 333.035156 85.105469 " fill-opacity="1" fill-rule="nonzero"/></svg>